<?xml version="1.0" encoding="utf-8"?>
<!-- Generator: Adobe Illustrator 23.1.1, SVG Export Plug-In . SVG Version: 6.00 Build 0)  -->
<svg version="1.1" id="Layer_1" xmlns="http://www.w3.org/2000/svg" xmlns:xlink="http://www.w3.org/1999/xlink" x="0px" y="0px"
	 viewBox="0 0 1080 1080" style="enable-background:new 0 0 1080 1080;" xml:space="preserve">
<style type="text/css">
	.st0{display:none;fill:#FFFFFF;}
	.st1{font-family:'BerkshireSwash-Regular';}
	.st2{font-size:57.7593px;}
</style>
<desc>Created with Fabric.js 5.2.4</desc>
<g id="f9252c93-80c1-4fcd-8d22-4eab84d13449" transform="matrix(1 0 0 1 540 540)">
	<rect x="-540" y="-540" vector-effect="non-scaling-stroke" class="st0" width="1080" height="1080"/>
</g>
<g transform="matrix(1 0 0 1 540 540)">
</g>
<g transform="matrix(1 0 0 1 540 540)">
	<g vector-effect="non-scaling-stroke">
		<g transform="matrix(1 0 0 1 -105.04 0)">
			<path vector-effect="non-scaling-stroke" d="M26-9.5c-2.1-0.7-4.3-1.3-6.8-1.7c0.8-2.4,1.4-4.6,1.9-6.8
	      c1.7-7.8,0.8-12.9-2.4-14.8c-0.8-0.5-1.7-0.7-2.8-0.7c-1.5,0-3.3,0.5-5.1,1.6c-0.7-0.6-1.5-0.9-2.4-0.9c-2.2,0-4,1.8-4,4
				c0,0.5,0.1,1,0.3,1.4c-1.5,1.4-3.1,3-4.7,4.9c-6-6.8-11.8-11-16-11c-1,0-2,0.2-2.8,0.7c-3.2,1.9-4.1,7-2.4,14.8
				c0.5,2.1,1.1,4.4,1.9,6.8c-2.4,0.5-4.7,1.1-6.8,1.7C-33.6-7.1-37.5-3.8-37.5,0c0,2.6,1.9,5,5.5,7c-0.1,0.3-0.1,0.6-0.1,1
				c0,2.2,1.8,4,4,4c1.5,0,2.8-0.8,3.5-2c1.7,0.5,3.5,0.9,5.4,1.3c-0.8,2.4-1.4,4.6-1.9,6.8c-1.7,7.8-0.8,12.9,2.4,14.8
				c0.8,0.5,1.7,0.7,2.8,0.7c4.2,0,10-4.1,16-11c6,6.8,11.8,11,16,11c1,0,2-0.2,2.8-0.7c2.5-1.4,3.5-4.8,3.2-9.7
				c1.4-0.7,2.4-2.1,2.4-3.7c0-2.1-1.6-3.9-3.7-4c-0.4-1.4-0.8-2.8-1.3-4.2c2.4-0.5,4.7-1.1,6.8-1.7C33.5,7.1,37.5,3.8,37.5,0
				C37.5-3.8,33.5-7.1,26-9.5z M6.2-25.5c0.6,0.4,1.4,0.7,2.2,0.7c2.2,0,4-1.8,4-4c0-0.4-0.1-0.8-0.2-1.2c1.4-0.8,2.7-1.2,3.8-1.2
				c0.6,0,1.1,0.1,1.6,0.4c2.2,1.3,2.6,5.8,1.3,12.2c-0.5,2.1-1.1,4.4-1.9,6.8c-3.2-0.5-6.4-0.9-9.6-1.1c-1.8-2.7-3.7-5.3-5.8-7.9
				C3-22.3,4.5-23.9,6.2-25.5z M9.1,5.3c-1,1.7-2,3.5-3.1,5.1c-4,0.2-8,0.2-12,0c-1.1-1.7-2.1-3.4-3.1-5.1c-1-1.7-1.9-3.5-2.8-5.3
				c1.8-3.6,3.8-7.1,6-10.4c4-0.2,8-0.2,12,0c2.2,3.4,4.2,6.9,6,10.4C11,1.8,10.1,3.6,9.1,5.3z M13.3,2.7c1,2.2,2,4.4,2.8,6.7
				c-2.4,0.4-4.7,0.7-7.1,0.9c0.8-1.2,1.5-2.5,2.2-3.7C11.9,5.3,12.6,4,13.3,2.7z M4.3,12.9c-1.4,2-2.8,3.9-4.3,5.8
				c-1.5-1.9-3-3.8-4.3-5.8C-2.9,13-1.5,13,0,13C1.5,13,2.9,13,4.3,12.9z M-9,10.3c-2.4-0.2-4.8-0.5-7.1-0.9
				c0.8-2.1,1.7-4.4,2.8-6.7c0.7,1.3,1.4,2.6,2.1,3.8C-10.5,7.8-9.7,9-9,10.3L-9,10.3z M-13.3-2.7c-1-2.2-2-4.4-2.8-6.7
				c2.4-0.4,4.7-0.7,7.1-0.9c-0.8,1.2-1.5,2.5-2.2,3.7C-11.9-5.3-12.6-4-13.3-2.7z M-4.3-13c1.4-2,2.8-3.9,4.3-5.8
				C1.5-16.9,3-15,4.3-13C2.9-13,1.5-13,0-13C-1.5-13-2.9-13-4.3-13z M11.2-6.5C10.5-7.8,9.7-9,8.9-10.3c2.4,0.2,4.8,0.5,7.1,0.9
				c-0.9,2.3-1.8,4.5-2.8,6.7C12.6-4,11.9-5.2,11.2-6.5z M-18.8-18.5c-1.4-6.4-0.9-10.9,1.3-12.2c0.5-0.3,1-0.4,1.6-0.4
				c3.2,0,8.5,3.6,14.4,10.4c-1.9,2.4-3.9,5-5.7,7.9c-3.4,0.2-6.6,0.6-9.6,1.1C-17.7-14.1-18.4-16.4-18.8-18.5z M-24.2,7.5
				c-0.2-2-1.9-3.6-4-3.6c-1,0-1.9,0.4-2.6,1c-2.8-1.5-4.4-3.3-4.4-4.9c0-3.3,6.3-6.9,16.6-8.9c1.1,3,2.4,6,3.8,8.9
				c-1.4,2.9-2.7,5.9-3.8,8.9C-20.4,8.6-22.3,8.1-24.2,7.5z M-16,31.1c-0.6,0-1.1-0.1-1.6-0.4c-2.9-1.7-2.8-9,0.6-19
				c3,0.5,6.2,0.9,9.6,1.1c1.8,2.7,3.7,5.3,5.7,7.9C-7.5,27.5-12.8,31.1-16,31.1z M18.2,16c-1.2,0.7-1.9,2-1.9,3.4
				c0,2,1.4,3.6,3.2,4c0.3,3.8-0.4,6.4-2,7.3c-0.4,0.3-1,0.4-1.6,0.4c-3.2,0-8.5-3.6-14.4-10.4c2-2.5,4-5.1,5.8-7.9
				c3.2-0.2,6.4-0.6,9.6-1.1C17.4,13.2,17.9,14.6,18.2,16L18.2,16z M18.5,8.9c-1.1-3-2.4-6-3.8-8.9c1.4-2.9,2.7-5.9,3.8-8.9
				c10.3,2,16.6,5.6,16.6,8.9C35.1,3.3,28.8,6.9,18.5,8.9L18.5,8.9z"/>
		</g>
		<g transform="matrix(1 0 0 1 -105.04 0)">
			<path vector-effect="non-scaling-stroke" d="M5.6,0C5.6,1.5,5,2.9,4,4C3.2,4.8,2.2,5.3,1.1,5.5C0,5.7-1.1,5.6-2.1,5.2
				C-2.8,4.9-3.4,4.5-3.9,4c-0.5-0.5-0.9-1.1-1.2-1.8c-0.4-1-0.5-2.2-0.3-3.3C-5.3-2.2-4.7-3.2-3.9-4c0.8-0.8,1.8-1.3,2.9-1.5
				C0-5.8,1.1-5.6,2.1-5.2C2.8-4.9,3.4-4.5,4-4c0.5,0.5,0.9,1.1,1.2,1.8C5.4-1.5,5.6-0.7,5.6,0L5.6,0z"/>
		</g>
		<g transform="matrix(1 0 0 1 47.52 -0.13)">
			<path vector-effect="non-scaling-stroke" d="M-18.3,12.2c3.7,0,5.7,2.3,5.7,6c0,4.3-2.6,7.2-6.9,7.2c-3.8,0-5.9-2.3-5.9-5.9
				C-25.4,15.3-22.6,12.2-18.3,12.2L-18.3,12.2z M19.6-25.3c4.1,0,6.6,2.5,6.2,6l-3.3,42.6c-0.5,0.6-2.7,1.3-4.6,1.3
				c-4.2,0-6.5-1.5-6.7-5.4h-0.4c-1.4,3.4-5.3,5.5-9.8,5.5c-6.5,0-11.9-4.1-11.9-16.3c0-12.7,6-21.8,15.6-21.8
				c5.6,0,7.5,2.9,8.2,5.4h0.3L14.3-24C14.8-24.4,17.2-25.3,19.6-25.3L19.6-25.3z M5.7,15.7c2.9,0,5.5-2.3,6.2-7.5l0.5-5.9
				C12.2-2.7,10.6-4.2,8-4.2c-4,0-7,3.7-7,11.9C1,13.2,2.8,15.7,5.7,15.7z M42.4,25c-9.2,0-15.6-5.8-15.6-16.9
				c0-12.5,7.4-21.3,18.6-21.3c9.7,0,13.1,5.6,13.1,11c0,8.8-8.2,12.5-16.9,12.5c-1.2,0-2-0.1-2.7-0.1c-0.1,2.2,0.9,5.7,5.8,5.7
				c3,0,5.2-1.1,8-4c1.7,0.5,3.4,2,3.4,4.5C56.1,21.6,49.4,25,42.4,25z M44.6-3.9c-2.9,0-5.4,2.5-5.5,7.7c0.8,0,1.3,0.1,2.1,0.1
				c4.4,0,6.5-2.2,6.5-4.7C47.7-2.5,46.8-3.9,44.6-3.9z M73,25c-5.4,0-7.6-2-7.9-3.8L58.5-9.3c2.3-1.7,4.8-3.3,8-3.3
				c2.9,0,4.2,1.3,4.6,3.5l3.6,24H75l8.4-26.4c1.9-1.3,3.6-1.9,5.8-1.9c3.6,0,6.1,1.5,5.8,6.3L81.8,23C79,24.3,76,25,73,25z"/>
		</g>
	</g>
</g>
<text transform="matrix(1 0 0 1 483.1874 561.3926)" class="st1 st2">RS</text>
</svg>
